<?xml version="1.0" encoding="UTF-8" standalone="no"?>
<svg
   xmlns:dc="http://purl.org/dc/elements/1.1/"
   xmlns:cc="http://creativecommons.org/ns#"
   xmlns:rdf="http://www.w3.org/1999/02/22-rdf-syntax-ns#"
   xmlns:svg="http://www.w3.org/2000/svg"
   xmlns="http://www.w3.org/2000/svg"
   viewBox="0 0 26.666668 26.666668"
   height="26.666668"
   width="26.666668"
   xml:space="preserve"
   id="svg2"
   version="1.1"><metadata
     id="metadata8"><rdf:RDF><cc:Work
         rdf:about=""><dc:format>image/svg+xml</dc:format><dc:type
           rdf:resource="http://purl.org/dc/dcmitype/StillImage" /></cc:Work></rdf:RDF></metadata><defs
     id="defs6"><clipPath
       id="clipPath18"
       clipPathUnits="userSpaceOnUse"><path
         id="path16"
         d="M 0,20 H 20 V 0 H 0 Z" /></clipPath></defs><g
     transform="matrix(1.3333333,0,0,-1.3333333,0,26.666667)"
     id="g10"><g
       id="g12"><g
         clip-path="url(#clipPath18)"
         id="g14"><path
           id="path20"
           style="fill:none;stroke:#5384ff;stroke-width:2;stroke-linecap:round;stroke-linejoin:round;stroke-miterlimit:10;stroke-dasharray:none;stroke-opacity:1"
           d="M 19,1 H 1 v 16 h 18 z" /><g
           transform="translate(14,19)"
           id="g22"><path
             id="path24"
             style="fill:none;stroke:#5384ff;stroke-width:2;stroke-linecap:round;stroke-linejoin:round;stroke-miterlimit:10;stroke-dasharray:none;stroke-opacity:1"
             d="M 0,0 V -4" /></g><g
           transform="translate(6,19)"
           id="g26"><path
             id="path28"
             style="fill:none;stroke:#5384ff;stroke-width:2;stroke-linecap:round;stroke-linejoin:round;stroke-miterlimit:10;stroke-dasharray:none;stroke-opacity:1"
             d="M 0,0 V -4" /></g><g
           transform="translate(6.5312,9)"
           id="g30"><path
             id="path32"
             style="fill:#5384ff;fill-opacity:1;fill-rule:nonzero;stroke:none"
             d="M 0,0 H -1.062 C -1.321,0 -1.531,0.21 -1.531,0.469 V 1.531 C -1.531,1.79 -1.321,2 -1.062,2 H 0 C 0.259,2 0.469,1.79 0.469,1.531 V 0.469 C 0.469,0.21 0.259,0 0,0" /></g><g
           transform="translate(10.5312,9)"
           id="g34"><path
             id="path36"
             style="fill:#5384ff;fill-opacity:1;fill-rule:nonzero;stroke:none"
             d="M 0,0 H -1.062 C -1.321,0 -1.531,0.21 -1.531,0.469 V 1.531 C -1.531,1.79 -1.321,2 -1.062,2 H 0 C 0.259,2 0.469,1.79 0.469,1.531 V 0.469 C 0.469,0.21 0.259,0 0,0" /></g><g
           transform="translate(14.5312,9)"
           id="g38"><path
             id="path40"
             style="fill:#5384ff;fill-opacity:1;fill-rule:nonzero;stroke:none"
             d="M 0,0 H -1.062 C -1.321,0 -1.531,0.21 -1.531,0.469 V 1.531 C -1.531,1.79 -1.321,2 -1.062,2 H 0 C 0.259,2 0.469,1.79 0.469,1.531 V 0.469 C 0.469,0.21 0.259,0 0,0" /></g><g
           transform="translate(6.5312,5)"
           id="g42"><path
             id="path44"
             style="fill:#5384ff;fill-opacity:1;fill-rule:nonzero;stroke:none"
             d="M 0,0 H -1.062 C -1.321,0 -1.531,0.21 -1.531,0.469 V 1.531 C -1.531,1.79 -1.321,2 -1.062,2 H 0 C 0.259,2 0.469,1.79 0.469,1.531 V 0.469 C 0.469,0.21 0.259,0 0,0" /></g><g
           transform="translate(10.5312,5)"
           id="g46"><path
             id="path48"
             style="fill:#5384ff;fill-opacity:1;fill-rule:nonzero;stroke:none"
             d="M 0,0 H -1.062 C -1.321,0 -1.531,0.21 -1.531,0.469 V 1.531 C -1.531,1.79 -1.321,2 -1.062,2 H 0 C 0.259,2 0.469,1.79 0.469,1.531 V 0.469 C 0.469,0.21 0.259,0 0,0" /></g><g
           transform="translate(14.5312,5)"
           id="g50"><path
             id="path52"
             style="fill:#5384ff;fill-opacity:1;fill-rule:nonzero;stroke:none"
             d="M 0,0 H -1.062 C -1.321,0 -1.531,0.21 -1.531,0.469 V 1.531 C -1.531,1.79 -1.321,2 -1.062,2 H 0 C 0.259,2 0.469,1.79 0.469,1.531 V 0.469 C 0.469,0.21 0.259,0 0,0" /></g></g></g></g></svg>