<?xml version="1.0" encoding="UTF-8" standalone="no"?>
<svg
   xmlns:dc="http://purl.org/dc/elements/1.1/"
   xmlns:cc="http://creativecommons.org/ns#"
   xmlns:rdf="http://www.w3.org/1999/02/22-rdf-syntax-ns#"
   xmlns:svg="http://www.w3.org/2000/svg"
   xmlns="http://www.w3.org/2000/svg"
   viewBox="0 0 755.01465 209.99467"
   height="209.99467"
   width="755.01465"
   xml:space="preserve"
   id="svg2"
   version="1.1"><metadata
     id="metadata8"><rdf:RDF><cc:Work
         rdf:about=""><dc:format>image/svg+xml</dc:format><dc:type
           rdf:resource="http://purl.org/dc/dcmitype/StillImage" /></cc:Work></rdf:RDF></metadata><defs
     id="defs6"><clipPath
       id="clipPath18"
       clipPathUnits="userSpaceOnUse"><path
         id="path16"
         d="M 0,157.496 H 566.261 V 0 H 0 Z" /></clipPath><linearGradient
       id="linearGradient40"
       spreadMethod="pad"
       gradientTransform="matrix(97.193184,81.554771,81.554771,-97.193184,16.00428,31.011328)"
       gradientUnits="userSpaceOnUse"
       y2="0"
       x2="1"
       y1="0"
       x1="0"><stop
         id="stop36"
         offset="0"
         style="stop-opacity:1;stop-color:#5794ff" /><stop
         id="stop38"
         offset="1"
         style="stop-opacity:1;stop-color:#2b4d77" /></linearGradient><linearGradient
       id="linearGradient60"
       spreadMethod="pad"
       gradientTransform="matrix(115.80868,-39.876125,-39.876125,-115.80868,39.57618,99.134041)"
       gradientUnits="userSpaceOnUse"
       y2="0"
       x2="1"
       y1="0"
       x1="0"><stop
         id="stop56"
         offset="0"
         style="stop-opacity:1;stop-color:#5794ff" /><stop
         id="stop58"
         offset="1"
         style="stop-opacity:1;stop-color:#2b4d77" /></linearGradient><linearGradient
       id="linearGradient80"
       spreadMethod="pad"
       gradientTransform="matrix(83.728691,-124.13289,-124.13289,-83.728691,51.673801,155.42682)"
       gradientUnits="userSpaceOnUse"
       y2="0"
       x2="1"
       y1="0"
       x1="0"><stop
         id="stop76"
         offset="0"
         style="stop-opacity:1;stop-color:#5794ff" /><stop
         id="stop78"
         offset="1"
         style="stop-opacity:1;stop-color:#2b4d77" /></linearGradient></defs><g
     transform="matrix(1.3333333,0,0,-1.3333333,0,209.99467)"
     id="g10"><g
       id="g12"><g
         clip-path="url(#clipPath18)"
         id="g14"><g
           transform="translate(78.9325,40.3063)"
           id="g20"><path
             id="path22"
             style="fill:#1c344c;fill-opacity:1;fill-rule:nonzero;stroke:none"
             d="M 0,0 C -21.31,0 -38.585,17.275 -38.585,38.585 -38.585,59.895 -21.31,77.17 0,77.17 21.31,77.17 38.585,59.895 38.585,38.585 38.585,17.275 21.31,0 0,0 m 0,117.19 c -43.412,0 -78.604,-35.193 -78.604,-78.605 0,-43.412 35.192,-78.604 78.604,-78.604 43.412,0 78.604,35.192 78.604,78.604 0,43.412 -35.192,78.605 -78.604,78.605" /></g></g></g><g
       id="g24"><g
         id="g26"><g
           id="g32"><g
             id="g34"><path
               id="path42"
               style="fill:url(#linearGradient40);stroke:none"
               d="M 58.711,154.906 C 24.927,146.04 0,115.315 0,78.75 v 0 C 0,35.258 35.258,0 78.75,0 v 0 c 6.912,0 13.613,0.897 20,2.57 v 0 C 64.945,11.421 40,42.169 40,78.75 v 0 c 0,21.401 17.349,38.75 38.75,38.75 v 0 c 21.401,0 38.75,-17.349 38.75,-38.75 v 0 h 0.018 c 0,36.581 -24.93,67.324 -58.734,76.176 v 0 z" /></g></g></g></g><g
       id="g44"><g
         id="g46"><g
           id="g52"><g
             id="g54"><path
               id="path62"
               style="fill:url(#linearGradient60);stroke:none"
               d="m 78.787,157.495 c -6.912,0 -13.613,-0.897 -20,-2.569 v 0 c 33.805,-8.852 58.75,-39.599 58.75,-76.181 v 0 c 0,-21.401 -17.349,-38.749 -38.75,-38.749 v 0 c -21.401,0 -38.751,17.348 -38.751,38.749 v 0 h -0.017 c 0,-36.58 24.93,-67.324 58.734,-76.175 v 0 l 0.073,0.02 c 33.784,8.866 58.711,39.591 58.711,76.155 v 0 c 0,43.493 -35.258,78.75 -78.75,78.75 z" /></g></g></g></g><g
       id="g64"><g
         id="g66"><g
           id="g72"><g
             id="g74"><path
               id="path82"
               style="fill:url(#linearGradient80);stroke:none"
               d="M 78.694,157.495 C 58.589,157.458 38.498,149.77 23.159,134.43 v 0 c -4.887,-4.887 -8.991,-10.26 -12.325,-15.959 v 0 c 30.163,17.645 69.544,13.542 95.41,-12.325 v 0 c 15.133,-15.133 15.133,-39.667 0,-54.8 v 0 c -15.133,-15.134 -39.667,-15.134 -54.801,0 v 0 L 51.431,51.333 C 77.297,25.466 116.664,21.355 146.827,39 v 0 l 0.038,0.065 c 17.618,30.158 13.519,69.51 -12.337,95.365 v 0 c -15.339,15.34 -35.43,23.028 -55.535,23.065 v 0 z" /></g></g></g></g><text
       id="text86"
       style="font-variant:normal;font-weight:500;font-stretch:normal;font-size:100px;font-family:'Roboto Medium';-inkscape-font-specification:Roboto-Medium;writing-mode:lr-tb;fill:#ffffff;fill-opacity:1;fill-rule:nonzero;stroke:none"
       transform="matrix(1,0,0,-1,197.4136,46.5371)"><tspan
         id="tspan84"
         y="0"
         x="0 87.5 141.2 176.39999 228.60001 284.20001 320.17001">Merkury</tspan></text>
</g></svg>