<?xml version="1.0" encoding="UTF-8" standalone="no"?>
<svg
   xmlns:dc="http://purl.org/dc/elements/1.1/"
   xmlns:cc="http://creativecommons.org/ns#"
   xmlns:rdf="http://www.w3.org/1999/02/22-rdf-syntax-ns#"
   xmlns:svg="http://www.w3.org/2000/svg"
   xmlns="http://www.w3.org/2000/svg"
   viewBox="0 0 28 29.333332"
   height="29.333332"
   width="28"
   xml:space="preserve"
   id="svg2"
   version="1.1"><metadata
     id="metadata8"><rdf:RDF><cc:Work
         rdf:about=""><dc:format>image/svg+xml</dc:format><dc:type
           rdf:resource="http://purl.org/dc/dcmitype/StillImage" /></cc:Work></rdf:RDF></metadata><defs
     id="defs6"><clipPath
       id="clipPath18"
       clipPathUnits="userSpaceOnUse"><path
         id="path16"
         d="M 0,22 H 21 V 0 H 0 Z" /></clipPath></defs><g
     transform="matrix(1.3333333,0,0,-1.3333333,0,29.333333)"
     id="g10"><g
       id="g12"><g
         clip-path="url(#clipPath18)"
         id="g14"><g
           transform="translate(18.2589,11)"
           id="g20"><path
             id="path22"
             style="fill:none;stroke:#5384ff;stroke-width:2;stroke-linecap:round;stroke-linejoin:round;stroke-miterlimit:10;stroke-dasharray:none;stroke-opacity:1"
             d="M 0,0 C 0,0.514 -0.051,1.015 -0.141,1.502 L 1.741,3.346 -0.199,6.81 -2.692,6.05 C -3.425,6.703 -4.277,7.136 -5.211,7.472 L -5.819,10 h -3.88 l -0.608,-2.528 c -0.934,-0.336 -1.786,-0.808 -2.519,-1.461 l -2.493,0.779 -1.94,-3.454 1.882,-1.839 c -0.089,-0.487 -0.141,-0.985 -0.141,-1.499 0,-0.514 0.052,-1.014 0.141,-1.501 l -1.882,-1.843 1.94,-3.464 2.493,0.76 c 0.733,-0.653 1.585,-1.086 2.519,-1.422 L -9.699,-10 h 3.88 l 0.608,2.528 c 0.934,0.336 1.786,0.808 2.519,1.461 l 2.493,-0.779 1.94,3.454 -1.882,1.839 C -0.051,-1.01 0,-0.514 0,0 Z" /></g><g
           transform="translate(13.5,11)"
           id="g24"><path
             id="path26"
             style="fill:none;stroke:#5384ff;stroke-width:2;stroke-linecap:round;stroke-linejoin:round;stroke-miterlimit:10;stroke-dasharray:none;stroke-opacity:1"
             d="m 0,0 c 0,-1.657 -1.343,-3 -3,-3 -1.657,0 -3,1.343 -3,3 0,1.657 1.343,3 3,3 1.657,0 3,-1.343 3,-3 z" /></g></g></g></g></svg>